#!OML:ASF E:\emotionWalksFemale\Project 1\Capture day 1\Session 1\Female1.ASF
:FULLY-SPECIFIED
:DEGREES
515
root 9.75296 15.3239 -8.98381 -0.522701 -2.313 -3.68761
lowerback 6.9566 3.24682 4.57906
upperback -4.17903 4.86029 0.29504
thorax -7.96248 2.13613 -2.90268
lowerneck -5.53853 -4.31522 -8.62443
upperneck 11.7755 -5.8119 6.92694
head 4.8913 -2.83873 3.20338
rclavicle 2.13942e-014 1.21259e-014
rhumerus -26.874 10.5585 -84.503
rradius 33.5093
rwrist 14.6288
rhand 0.673299 -51.8664
rfingers 7.12502
rthumb 26.2351 -80.0729
lclavicle 2.13942e-014 1.21259e-014
lhumerus -51.0957 10.0546 74.7049
lradius 40.7609
lwrist -5.83245
lhand -2.6503 -26.7218
lfingers 7.12502
lthumb 23.0495 1.91976
rfemur 18.932 15.4246 38.2542
rtibia 1.90833e-014
rfoot -10.9289 -27.9787
rtoes -3.53304
lfemur -30.6585 -12.6558 -16.2316
ltibia 32.6843
lfoot -18.1844 17.0125
ltoes -19.9734
516
root 9.7528 15.3174 -8.84465 -0.405448 -2.49112 -3.65435
lowerback 6.86678 3.29625 4.50925
upperback -4.1506 4.9144 0.314289
thorax -7.8822 2.17032 -2.84269
lowerneck -5.48779 -4.27664 -8.56034
upperneck 11.3261 -5.7439 6.87985
head 4.73634 -2.80573 3.18445
rclavicle 1.02126e-014 7.55382e-015
rhumerus -26.3892 10.4636 -84.3708
rradius 33.4551
rwrist 14.586
rhand -0.00208124 -51.856
rfingers 7.12502
rthumb 25.5884 -80.1571
lclavicle 1.02126e-014 7.55382e-015
lhumerus -50.9343 10.6286 74.2374
lradius 40.4055
lwrist -5.24095
lhand -2.84585 -29.0839
lfingers 7.12502
lthumb 22.8619 -0.418965
rfemur 19.3365 14.9923 38.1797
rtibia -7.95139e-015
rfoot -11.0698 -27.6209
rtoes -3.86299
lfemur -30.8971 -14.2877 -15.5479
ltibia 30.8694
lfoot -18.7356 18.7513
ltoes -18.7069
517
root 9.75647 15.3076 -8.70089 -0.271797 -2.7674 -3.6959
lowerback 6.7449 3.36965 4.60345
upperback -4.15409 5.01717 0.337111
thorax -7.80186 2.21914 -2.87427
lowerneck -5.4319 -4.19209 -8.65009
upperneck 10.942 -5.62056 6.98809
head 4.60502 -2.74356 3.24297
rclavicle 4.89756e-014 2.5842e-015
rhumerus -26.0089 10.3119 -84.2541
rradius 33.3581
rwrist 14.6075
rhand -0.597445 -51.6843
rfingers 7.12502
rthumb 25.018 -80.0661
lclavicle 4.89756e-014 2.5842e-015
lhumerus -51.0799 10.7221 74.0468
lradius 40.7367
lwrist -4.21337
lhand -2.63326 -28.2395
lfingers 7.12502
lthumb 23.0659 0.399993
rfemur 19.7675 14.6574 38.1804
rtibia -5.56597e-014
rfoot -11.227 -27.2563
rtoes -4.29055
lfemur -31.2197 -16.3154 -14.5915
ltibia 29.2671
lfoot -18.8492 21.1655
ltoes -19.8143
518
root 9.75935 15.2963 -8.56032 -0.0733281 -3.12433 -3.81856
lowerback 6.8039 3.41086 4.82082
upperback -4.31039 5.10568 0.349628
thorax -7.98249 2.24226 -3.00317
lowerneck -5.32945 -4.13379 -8.65772
upperneck 10.7642 -5.5335 6.92318
head 4.52498 -2.70637 3.23194
rclavicle -3.65267e-014 -2.46493e-014
rhumerus -25.8648 10.1103 -84.2798
rradius 33.2906
rwrist 14.9865
rhand -0.577122 -51.4724
rfingers 7.12502
rthumb 25.0375 -79.8514
lclavicle -3.65267e-014 -2.46493e-014
lhumerus -51.334 10.9121 73.6232
lradius 40.8698
lwrist -3.58754
lhand -2.03164 -26.9965
lfingers 7.12502
lthumb 23.643 1.56971
rfemur 20.1159 14.4168 38.2588
rtibia 3.18055e-015
rfoot -11.103 -26.9601
rtoes -4.58015
lfemur -31.7226 -18.7747 -13.2477
ltibia 27.8965
lfoot -20.1864 23.4169
ltoes -17.9747
519
root 9.76178 15.2848 -8.41614 0.0490734 -3.49902 -3.89171
lowerback 6.83515 3.46115 4.96535
upperback -4.35786 5.19153 0.343574
thorax -8.03304 2.27339 -3.10417
lowerneck -5.53013 -4.11312 -8.54384
upperneck 10.6824 -5.48002 6.77595
head 4.52258 -2.6794 3.16738
rclavicle -2.32081e-014 -1.39149e-015
rhumerus -25.5626 9.81722 -84.2794
rradius 33.2402
rwrist 15.4634
rhand -0.574862 -51.432
rfingers 7.12502
rthumb 25.0396 -79.8107
lclavicle -2.32081e-014 -1.39149e-015
lhumerus -51.2519 10.9793 73.3236
lradius 40.7459
lwrist -3.43708
lhand -1.88671 -26.9444
lfingers 7.12502
lthumb 23.782 1.60375
rfemur 20.5397 14.1745 38.2881
rtibia 8.26944e-014
rfoot -10.9211 -26.7262
rtoes -4.87111
lfemur -32.2563 -21.6904 -11.703
ltibia 26.7619
lfoot -23.162 25.4107
ltoes -10.6234
520
root 9.76593 15.2707 -8.26742 0.164767 -3.76036 -3.8863
lowerback 6.63297 3.50142 4.99689
upperback -4.31 5.23371 0.342101
thorax -7.85697 2.29987 -3.11013
lowerneck -5.63766 -3.99429 -8.58477
upperneck 10.4519 -5.31001 6.89334
head 4.46085 -2.58871 3.2204
rclavicle -2.26242e-014 -8.34896e-015
rhumerus -25.1412 9.63442 -84.2106
rradius 33.1706
rwrist 15.7529
rhand -0.346556 -51.7772
rfingers 7.12502
rthumb 25.2584 -80.1253
lclavicle -2.26242e-014 -8.34896e-015
lhumerus -51.1161 10.718 73.3007
lradius 40.8462
lwrist -3.26184
lhand -2.05881 -26.8655
lfingers 7.12502
lthumb 23.617 1.70409
rfemur 20.9991 13.8263 38.2157
rtibia 1.59028e-014
rfoot -10.8753 -26.44
rtoes -4.9365
lfemur -33.0548 -25.4365 -9.8285
ltibia 25.8799
lfoot -26.4384 27.7214
ltoes -0.713808
521
root 9.77027 15.2569 -8.11803 0.319484 -4.02666 -3.91384
lowerback 6.44032 3.55512 5.06347
upperback -4.36571 5.3018 0.332988
thorax -7.79291 2.33125 -3.15164
lowerneck -5.3847 -3.86949 -8.60983
upperneck 10.0801 -5.15589 7.01244
head 4.29624 -2.5119 3.27653
rclavicle -5.58212e-014 -1.41137e-014
rhumerus -24.9113 9.6132 -84.2207
rradius 33.0376
rwrist 15.7041
rhand -0.537099 -51.7545
rfingers 7.12502
rthumb 25.0758 -80.1282
lclavicle -5.58212e-014 -1.41137e-014
lhumerus -51.0548 10.6116 73.0688
lradius 40.6886
lwrist -3.4846
lhand -2.52185 -27.7381
lfingers 7.12502
lthumb 23.1728 0.888054
rfemur 21.4477 13.4964 38.1579
rtibia 6.67916e-014
rfoot -11.1001 -26.1075
rtoes -3.56281
lfemur -34.2018 -29.7095 -7.47368
ltibia 25.2369
lfoot -30.3718 30.7224
ltoes 4.3015
522
root 9.77719 15.2415 -7.96832 0.442191 -4.39504 -4.03529
lowerback 6.36723 3.60626 5.24269
upperback -4.40177 5.38736 0.368068
thorax -7.7706 2.36478 -3.21908
lowerneck -5.40134 -3.79868 -8.51859
upperneck 9.8035 -5.04432 6.9105
head 4.20128 -2.45788 3.23704
rclavicle 4.04775e-014 -1.2921e-014
rhumerus -24.6759 9.64067 -84.2356
rradius 32.9716
rwrist 15.6752
rhand -0.891761 -51.7169
rfingers 7.12502
rthumb 24.736 -80.1376
lclavicle 4.04775e-014 -1.2921e-014
lhumerus -51.0094 10.7924 72.694
lradius 40.3798
lwrist -4.10709
lhand -3.01597 -28.9931
lfingers 7.12502
lthumb 22.6986 -0.308125
rfemur 21.8921 13.2581 38.189
rtibia -1.59028e-014
rfoot -11.1399 -25.8986
rtoes -3.05867
lfemur -35.3993 -33.5061 -5.0558
ltibia 24.7973
lfoot -34.5395 33.2171
ltoes 10.0164
523
root 9.78589 15.2291 -7.81744 0.578371 -4.69182 -4.16749
lowerback 6.26537 3.59806 5.41634
upperback -4.42155 5.39336 0.451266
thorax -7.72598 2.36223 -3.22086
lowerneck -5.48669 -3.70217 -8.54046
upperneck 9.63747 -4.89369 6.87116
head 4.15287 -2.38444 3.23657
rclavicle 4.23784e-014 1.56046e-014
rhumerus -24.4221 9.65825 -84.2176
rradius 32.9309
rwrist 15.7938
rhand -0.870407 -51.9947
rfingers 7.12502
rthumb 24.7564 -80.4126
lclavicle 4.23784e-014 1.56046e-014
lhumerus -51.1426 10.9102 72.3926
lradius 40.3891
lwrist -4.49663
lhand -2.91296 -29.2919
lfingers 7.12502
lthumb 22.7975 -0.61908
rfemur 22.3287 12.9619 38.1991
rtibia -3.18055e-015
rfoot -10.8426 -25.5831
rtoes -3.8447
lfemur -36.5566 -36.4874 -2.92855
ltibia 24.4824
lfoot -39.3565 34.6614
ltoes 18.0996
